# xmcd CD database file
#
# Track frame offsets:
#	150
#	12245
#	21887
#	42794
#	68969
#	86855
#	97050
#	115281
#	139205
#	171455
#	197874
#
# Disc length: 3058 seconds
#
# Revision: 0
# Processed by: cddbd v1.5.2PL0 Copyright (c) Steve Scherf et al.
# Submitted via: jetAudio 7
#
DISCID=9f0bf00b
DTITLE=Lin Hai - Kehiniscences Of Beijing
DYEAR=1995
DGENRE=New Age
TTITLE0=WINTER SUN
TTITLE1=WILLOWS
TTITLE2=CITY BY MOONLIGHT
TTITLE3=DEEP IN ALLEY
TTITLE4=SPARROWS AND KIDS
TTITLE5=HEAVEN BRIDGE
TTITLE6=EVER-PEACEFUL RIVER
TTITLE7=LOTUS LANTERN
TTITLE8=SNOWING
TTITLE9=FLOWERS AS WITHERING
TTITLE10=CHILDHOOD_II. GROWING-UP_III.FAREWELL
EXTD=YEAR: 1995
EXTT0=
EXTT1=
EXTT2=
EXTT3=
EXTT4=
EXTT5=
EXTT6=
EXTT7=
EXTT8=
EXTT9=
EXTT10=
PLAYORDER=
